<?xml version="1.0" encoding="UTF-8" standalone="no"?>
<svg
   viewBox="0 0 505.06058 77.242855"
   version="1.1"
   id="svg49"
   sodipodi:docname="logo icon purple.svg"
   width="505.06058"
   height="77.242859"
   inkscape:version="1.1.2 (b8e25be833, 2022-02-05)"
   xmlns:inkscape="http://www.inkscape.org/namespaces/inkscape"
   xmlns:sodipodi="http://sodipodi.sourceforge.net/DTD/sodipodi-0.dtd"
   xmlns="http://www.w3.org/2000/svg"
   xmlns:svg="http://www.w3.org/2000/svg"
   xmlns:rdf="http://www.w3.org/1999/02/22-rdf-syntax-ns#"
   xmlns:cc="http://creativecommons.org/ns#"
   xmlns:dc="http://purl.org/dc/elements/1.1/">
  <sodipodi:namedview
     id="namedview51"
     pagecolor="#ffffff"
     bordercolor="#000000"
     borderopacity="0.25"
     inkscape:pageshadow="2"
     inkscape:pageopacity="0.0"
     inkscape:pagecheckerboard="0"
     showgrid="false"
     inkscape:zoom="2.5870177"
     inkscape:cx="217.43183"
     inkscape:cy="30.923638"
     inkscape:window-width="1920"
     inkscape:window-height="974"
     inkscape:window-x="-11"
     inkscape:window-y="-11"
     inkscape:window-maximized="1"
     inkscape:current-layer="svg49"
     height="77px" />
  <defs
     id="defs4">
    <style
       id="style2">.cls-1{fill:#7360f2;}.cls-2,.cls-3{fill:none;}.cls-3{stroke:#7360f2;stroke-linecap:round;stroke-linejoin:round;stroke-width:0.84px;}</style>
  </defs>
  <title
     id="title6">logo icon purple</title>
  <g
     id="Logos"
     transform="matrix(2.297923,0,0,2.297923,-132.68222,-300.99527)">
    <polygon
       class="cls-1"
       points="182.68,159.49 118.53,159.49 123.64,164.6 "
       id="polygon8" />
    <path
       class="cls-1"
       d="m 124.47,138.82 v 0.77 a 6.47,6.47 0 0 0 -3.72,-1.2 c -4.5,0 -7.91,4.1 -7.91,9.13 0,5.03 3.41,9.13 7.91,9.13 a 6.47,6.47 0 0 0 3.72,-1.2 v 0.78 h 3.95 v -17.41 z m -3.72,13.64 c -2.22,0 -3.84,-2.18 -3.84,-4.94 0,-2.76 1.62,-4.93 3.84,-4.93 2.22,0 3.78,2.18 3.78,4.93 0,2.75 -1.53,4.94 -3.78,4.94 z"
       id="path10" />
    <path
       class="cls-1"
       d="M 156.11,138.82 V 149 a 3.25,3.25 0 1 1 -6.47,0 v -10.18 h -3.95 V 149 c 0,4.2 2.87,7.61 7.07,7.61 a 6,6 0 0 0 3.35,-1.07 v 0.65 h 4 v -17.37 z"
       id="path12" />
    <path
       class="cls-1"
       d="M 192.93,156.23 V 146 a 3.25,3.25 0 1 1 6.47,0 v 10.23 h 3.95 V 146 c 0,-4.2 -2.87,-7.61 -7.07,-7.61 a 6,6 0 0 0 -3.35,1.08 v -0.65 h -4 v 17.41 z"
       id="path14" />
    <path
       class="cls-1"
       d="m 101.45,156.23 v -6.75 h 2.92 l 5.06,6.75 h 5.18 l -6.12,-8.14 a 7.5,7.5 0 0 0 -4.34,-13.61 h -6.83 v 21.75 z m 0,-17.62 h 2.7 a 3.37,3.37 0 1 1 0,6.74 h -2.7 z"
       id="path16" />
    <path
       class="cls-1"
       d="m 170.71,152.11 a 2.33,2.33 0 0 1 -1.32,0.42 1.94,1.94 0 0 1 -1.86,-2.13 V 143 h 3.38 v -4.13 h -3.38 v -4.34 h -3.95 v 4.34 h -2.09 V 143 h 2.09 v 7.51 a 6,6 0 0 0 5.87,6.21 8.14,8.14 0 0 0 3.87,-1.1 z"
       id="path18" />
    <polygon
       class="cls-1"
       points="130.67,133.04 130.67,156.22 134.74,156.22 134.74,149.07 140.57,156.22 146.1,156.22 138.24,146.98 145.02,138.82 139.48,138.82 134.74,144.88 134.74,133.04 "
       id="polygon20" />
    <path
       class="cls-1"
       d="m 179.84,138.38 c -4.57,0 -7.85,4 -7.85,9.14 0,5.39 4.11,9.15 8.24,9.15 a 8.27,8.27 0 0 0 7,-3.9 l -3.49,-2 c -2.7,4 -7.2,2 -7.72,-2 h 11.38 c 0.98,-6.28 -3.07,-10.39 -7.56,-10.39 z m 3.45,6.9 h -7.12 c 0.83,-4.08 6.35,-4.28 7.12,0 z"
       id="path22" />
    <path
       class="cls-1"
       d="m 216.07,154.73 -6.36,-15.85 a 3.28,3.28 0 0 1 -0.2,-0.65 3.35,3.35 0 0 1 -0.07,-0.71 2.23,2.23 0 0 1 0.7,-1.68 2.49,2.49 0 0 1 1.76,-0.67 1.78,1.78 0 0 1 1.27,0.47 4.2,4.2 0 0 1 0.91,1.57 l 4.32,11.66 4.17,-11.49 a 4.1,4.1 0 0 1 0.94,-1.72 2,2 0 0 1 1.41,-0.49 2.37,2.37 0 0 1 1.69,0.59 2.09,2.09 0 0 1 0.62,1.59 4.65,4.65 0 0 1 -0.08,0.82 5.91,5.91 0 0 1 -0.24,0.82 l -6.16,15.56 a 3.76,3.76 0 0 1 -1,1.51 2.2,2.2 0 0 1 -1.43,0.45 2.06,2.06 0 0 1 -1.34,-0.41 3.34,3.34 0 0 1 -0.91,-1.37 z"
       id="path24" />
    <path
       class="cls-1"
       d="m 232.84,153.35 a 4.34,4.34 0 0 1 -0.53,2.39 1.81,1.81 0 0 1 -1.62,0.77 1.9,1.9 0 0 1 -1.66,-0.78 4.21,4.21 0 0 1 -0.54,-2.38 v -8.75 a 4.21,4.21 0 0 1 0.54,-2.38 1.86,1.86 0 0 1 1.66,-0.77 1.81,1.81 0 0 1 1.62,0.77 4.3,4.3 0 0 1 0.53,2.38 z"
       id="path26" />
    <path
       class="cls-1"
       d="m 239.43,141.57 a 5.17,5.17 0 0 1 1.67,-1 5.7,5.7 0 0 1 2,-0.33 6.43,6.43 0 0 1 5.05,2.37 8.74,8.74 0 0 1 2.06,5.93 8.29,8.29 0 0 1 -2.11,5.72 6.45,6.45 0 0 1 -5,2.38 5.36,5.36 0 0 1 -2.11,-0.41 4.37,4.37 0 0 1 -1.65,-1.17 3.21,3.21 0 0 1 -1,1.12 2.11,2.11 0 0 1 -1.22,0.37 2,2 0 0 1 -1.75,-0.83 4.62,4.62 0 0 1 -0.56,-2.54 v -14.64 a 4.68,4.68 0 0 1 0.56,-2.55 2.25,2.25 0 0 1 3.49,0 4.49,4.49 0 0 1 0.58,2.55 z m -0.36,6.89 a 4.73,4.73 0 0 0 0.93,3.06 3,3 0 0 0 4.78,0 4.74,4.74 0 0 0 0.94,-3 4.85,4.85 0 0 0 -0.93,-3.08 3,3 0 0 0 -4.79,0 4.86,4.86 0 0 0 -0.93,3.02 z"
       id="path28" />
    <path
       class="cls-1"
       d="m 255.38,149.73 a 3.21,3.21 0 0 0 1.33,2 3.78,3.78 0 0 0 2.43,0.73 6.93,6.93 0 0 0 2.9,-0.75 7.4,7.4 0 0 1 2,-0.75 1.79,1.79 0 0 1 1.33,0.5 1.68,1.68 0 0 1 0.52,1.28 c 0,1 -0.69,1.89 -2.08,2.68 a 9.58,9.58 0 0 1 -4.89,1.2 7.72,7.72 0 0 1 -5.72,-2.33 8,8 0 0 1 -2.29,-5.85 8.2,8.2 0 0 1 2.23,-5.88 7.68,7.68 0 0 1 10.93,-0.15 7.47,7.47 0 0 1 2.16,5.42 1.87,1.87 0 0 1 -0.47,1.46 2.9,2.9 0 0 1 -1.82,0.41 z m -0.19,-2.7 H 262 a 3.54,3.54 0 0 0 -1,-2.33 3.2,3.2 0 0 0 -2.25,-0.86 3.5,3.5 0 0 0 -2.31,0.81 4.33,4.33 0 0 0 -1.25,2.35 z"
       id="path30" />
    <path
       class="cls-1"
       d="m 267.49,153.12 v -9.3 a 4.49,4.49 0 0 1 0.57,-2.53 1.94,1.94 0 0 1 1.74,-0.82 2.18,2.18 0 0 1 1.24,0.36 3.12,3.12 0 0 1 1,1.11 5.35,5.35 0 0 1 1.52,-1.16 3.59,3.59 0 0 1 1.62,-0.4 2.3,2.3 0 0 1 1.66,0.68 2.2,2.2 0 0 1 0.69,1.62 c 0,0.92 -0.85,1.7 -2.55,2.32 -0.61,0.22 -1.07,0.4 -1.37,0.54 a 2.49,2.49 0 0 0 -1.16,0.93 4,4 0 0 0 -0.29,1.84 v 4.81 a 4.52,4.52 0 0 1 -0.57,2.54 2,2 0 0 1 -1.75,0.83 1.93,1.93 0 0 1 -1.74,-0.83 4.52,4.52 0 0 1 -0.61,-2.54 z"
       id="path32" />
    <path
       class="cls-1"
       d="m 228.35,137.58 a 2.32,2.32 0 0 1 0.72,-1.71 2.37,2.37 0 0 1 1.72,-0.71 2.3,2.3 0 0 1 1.69,0.71 2.35,2.35 0 0 1 0.71,1.71 2.39,2.39 0 0 1 -2.4,2.4 2.32,2.32 0 0 1 -1.73,-0.7 2.29,2.29 0 0 1 -0.71,-1.7 z"
       id="path34" />
    <rect
       class="cls-2"
       x="97.32"
       y="134.48"
       width="180.17"
       height="25.01"
       id="rect36" />
    <path
       class="cls-1"
       d="m 85.58,134.21 c -0.82,-0.76 -4.14,-3.17 -11.53,-3.2 0,0 -8.72,-0.53 -13,3.37 -2.37,2.37 -3.2,5.83 -3.29,10.12 -0.09,4.29 -0.2,12.33 7.55,14.51 v 0 3.33 c 0,0 0,1.35 0.84,1.62 1.07,0.34 1.7,-0.69 2.73,-1.79 0.56,-0.61 1.34,-1.5 1.92,-2.18 a 29.82,29.82 0 0 0 9.84,-0.72 c 1.07,-0.35 7.13,-1.12 8.12,-9.17 1.05,-8.29 -0.46,-13.53 -3.18,-15.89 z m 0.9,15.3 c -0.84,6.71 -5.75,7.13 -6.65,7.42 a 27.41,27.41 0 0 1 -8.47,0.73 c 0,0 -3.36,4 -4.41,5.1 a 0.57,0.57 0 0 1 -0.48,0.2 c -0.18,-0.05 -0.23,-0.26 -0.23,-0.57 0,-0.31 0,-5.53 0,-5.53 v 0 c -6.56,-1.83 -6.18,-8.67 -6.1,-12.25 0.08,-3.58 0.75,-6.52 2.75,-8.5 3.59,-3.25 11,-2.77 11,-2.77 6.25,0 9.25,1.91 9.94,2.54 2.33,1.98 3.5,6.7 2.65,13.63 z"
       id="path38" />
    <path
       class="cls-3"
       d="m 77.09,144.31 a 2.39,2.39 0 0 0 -2.5,-2.58"
       id="path40" />
    <path
       class="cls-3"
       d="M 79.23,145 A 5.24,5.24 0 0 0 77.88,141.17 5.65,5.65 0 0 0 74,139.49"
       id="path42" />
    <path
       class="cls-3"
       d="m 81.43,145.89 a 8.45,8.45 0 0 0 -2.37,-6.26 8.08,8.08 0 0 0 -5.84,-2.31"
       id="path44" />
    <path
       class="cls-1"
       d="m 74.68,149.91 a 1.14,1.14 0 0 0 0.9,-0.34 l 0.62,-0.78 a 1.34,1.34 0 0 1 1.71,-0.23 17.43,17.43 0 0 1 1.54,1 c 0.47,0.35 1.42,1.14 1.42,1.15 a 1.17,1.17 0 0 1 0.25,1.54 v 0 a 6.44,6.44 0 0 1 -1.28,1.58 v 0 a 2.55,2.55 0 0 1 -1.31,0.63 0.56,0.56 0 0 1 -0.19,0 1.75,1.75 0 0 1 -0.55,-0.08 v 0 a 19.51,19.51 0 0 1 -3.58,-1.66 20.94,20.94 0 0 1 -3,-2 15.77,15.77 0 0 1 -1.35,-1.2 v 0 0 0 0 h -0.05 a 17.75,17.75 0 0 1 -1.2,-1.36 21.81,21.81 0 0 1 -2,-3 18.92,18.92 0 0 1 -1.65,-3.58 v 0 a 1.82,1.82 0 0 1 -0.09,-0.56 1,1 0 0 1 0,-0.19 2.49,2.49 0 0 1 0.63,-1.3 v 0 A 6.49,6.49 0 0 1 66.91,138 v 0 a 1.18,1.18 0 0 1 1.55,0.25 c 0,0 0.8,1 1.14,1.42 0.34,0.42 0.76,1.15 1,1.54 a 1.37,1.37 0 0 1 -0.24,1.72 l -0.78,0.61 a 1.16,1.16 0 0 0 -0.34,0.91 8.09,8.09 0 0 0 5.44,5.46 z"
       id="path46" />
  </g>
  <metadata
     id="metadata105">
    <rdf:RDF>
      <cc:Work
         rdf:about="">
        <dc:title>logo icon purple</dc:title>
      </cc:Work>
    </rdf:RDF>
  </metadata>
</svg>
